<svg width="35" height="36" viewBox="0 0 35 36" fill="none" xmlns="http://www.w3.org/2000/svg">
<g clip-path="url(#clip0_218_124)">
<path d="M34.2742 16.7627L19.357 1.85322L18.3571 0.853338C18.1293 0.627019 17.8212 0.5 17.5001 0.5C17.1789 0.5 16.8708 0.627019 16.643 0.853338L0.725945 16.7627C0.492501 16.9952 0.308007 17.2722 0.183352 17.5772C0.0586967 17.8822 -0.00359274 18.2091 0.000160019 18.5386C0.0156023 19.8975 1.14675 20.9823 2.50566 20.9823H4.1464V33.5561H30.8537V20.9823H32.5292C33.1894 20.9823 33.8109 20.7236 34.2781 20.2565C34.5081 20.0272 34.6903 19.7546 34.8142 19.4544C34.9382 19.1542 35.0013 18.8324 35 18.5077C35 17.8514 34.7413 17.2298 34.2742 16.7627ZM19.662 30.7765H15.3382V22.901H19.662V30.7765ZM28.0741 18.2027V30.7765H22.1327V21.9744C22.1327 21.1213 21.4417 20.4302 20.5885 20.4302H14.4116C13.5584 20.4302 12.8674 21.1213 12.8674 21.9744V30.7765H6.926V18.2027H3.21987L17.5039 3.9302L18.3957 4.82199L31.7841 18.2027H28.0741Z" fill="#58585A"/>
</g>
<defs>
<clipPath id="clip0_218_124">
<rect width="35" height="35" fill="white" transform="translate(0 0.5)"/>
</clipPath>
</defs>
</svg>
