<svg width="120" height="40" viewBox="0 0 120 40" fill="none" xmlns="http://www.w3.org/2000/svg">
<path d="M35.2174 0.332642C36.8171 0.31848 38.419 0.480167 39.9881 0.818883C43.0866 1.48805 46.0378 2.85 48.588 4.80205C49.1556 5.23636 49.7051 5.69899 50.2341 6.18406C50.9773 6.86503 51.4237 7.66166 51.009 8.67427C50.6601 9.52755 49.9407 9.8049 49.0638 9.67508C48.579 9.60308 48.264 9.27263 47.9253 8.96106C40.5636 2.15841 30.1103 2.25046 22.7611 9.17939C21.7879 10.0976 20.7932 10.1306 20.0512 9.27027C19.3408 8.44649 19.3997 7.41972 20.314 6.54283C22.7543 4.20487 25.6307 2.37674 28.8086 1.35941C30.8852 0.696143 33.0502 0.352706 35.2174 0.332642Z" fill="#C1222F"/>
<path d="M34.3147 6.71249C37.6182 6.59447 41.0158 7.48787 43.8005 9.34904C44.64 9.91082 45.4274 10.554 46.1615 11.2574C46.856 11.9219 46.9953 12.6855 46.3088 13.4585C46.2102 13.5694 46.1026 13.6874 45.9927 13.8066C45.3866 14.4593 44.3953 14.5041 43.7405 13.9046C43.6997 13.868 43.6623 13.8338 43.6294 13.8031C38.5631 9.13661 31.82 9.13661 26.689 13.7984C25.7782 14.6269 24.7314 14.6871 24.0448 13.9518C23.2824 13.1339 23.3288 12.0423 24.302 11.1264C26.9519 8.63621 30.2328 6.97803 33.8162 6.73845C33.9827 6.72783 34.1493 6.71839 34.3158 6.71249H34.3147Z" fill="#C1222F"/>
<path d="M48.0886 13.4585C51.7026 19.029 51.7989 26.2424 48.3095 31.925C45.2348 36.9314 40.0189 39.6683 34.6965 39.6683C31.7226 39.6683 28.7158 38.8138 26.0308 37.0247C24.0358 35.6946 22.3761 33.9632 21.1299 31.9274C21.1299 31.9274 23.0592 29.6614 23.3413 28.0434C24.3236 30.399 25.9368 32.37 28.0316 33.7661C33.7981 37.6089 41.4917 35.8492 45.1815 29.8408C47.8359 25.5177 47.7952 20.0428 45.109 15.7764C45.109 15.7764 47.5267 15.8425 48.0897 13.4597L48.0886 13.4585Z" fill="#81939B"/>
<path d="M24.7439 15.7987C22.6287 15.6134 21.779 13.4383 21.779 13.4383C18.4653 16.3145 18.5355 19.9837 18.591 20.7567C18.6001 21.1663 18.6432 21.5227 18.6783 21.813C18.7055 22.0408 18.7293 22.2367 18.7293 22.3913C18.7293 26.7037 15.3611 30.2125 11.2215 30.2125C7.08182 30.2125 3.71368 26.7037 3.71368 22.3913C3.71368 18.0789 7.08182 14.5701 11.2215 14.5701C13.1474 14.5701 14.9782 15.329 16.3773 16.7063L16.3875 16.6945C17.0627 17.366 17.6156 18.237 17.6156 18.237C17.7006 15.9285 19.2629 14.2007 19.2629 14.2007L18.7247 13.7039C18.6443 13.6283 18.5639 13.5528 18.4811 13.4796L18.4438 13.4454H18.4426C16.4215 11.6739 13.8827 10.7026 11.2215 10.7026C5.03465 10.7026 0 15.9462 0 22.3925C0 28.8387 5.03352 34.0823 11.2215 34.0823C17.4094 34.0823 22.4429 28.8387 22.4429 22.3925C22.4429 21.9983 22.401 21.6466 22.3636 21.3362C22.333 21.0801 22.307 20.8594 22.3036 20.634L22.29 20.4204C22.2877 20.4003 22.0249 17.6717 24.745 15.7999L24.7439 15.7987Z" fill="#81939B"/>
<path d="M40.7744 20.2976L32.5269 28.8894C33.3142 28.7643 34.071 28.4504 34.761 28.0409C34.3746 29.3662 34.0144 30.7447 33.2157 31.8789C33.0933 32.0736 32.9404 32.2483 32.8407 32.4595C34.5706 32.4524 36.2994 32.4513 38.0294 32.4595C37.8436 32.1916 37.6204 31.9568 37.4176 31.7066C36.5815 30.6763 36.2666 29.3285 35.9788 28.0444C37.2941 28.8281 38.9403 29.1361 40.3858 28.5649C41.4746 28.1518 42.3741 27.1935 42.6743 26.0204C42.9417 25.0432 42.8125 23.9881 42.4693 23.0486C42.0886 22.0231 41.4814 21.1084 40.7733 20.2976H40.7744Z" fill="#C1222F"/>
<path d="M37.2409 16.3971C36.5328 15.4719 35.9437 14.4581 35.3421 13.4573C34.5944 14.6233 33.8365 15.7846 32.9812 16.8704C32.1417 17.942 31.2387 18.9605 30.2678 19.907C29.6651 20.5373 29.1077 21.2194 28.6512 21.9736C28.0349 22.9815 27.576 24.1546 27.6338 25.3678C27.6519 25.8812 27.7845 26.3875 28.0077 26.8442L37.5978 16.8539C37.4788 16.7016 37.3553 16.5529 37.2398 16.3971H37.2409Z" fill="#C1222F"/>
<path d="M43.6874 16.2152L26.7142 33.9111C25.8453 33.2549 25.0737 32.4866 24.4155 31.6227L41.2981 14.0283C41.2981 14.0283 42.5002 14.8533 43.6863 16.2152H43.6874Z" fill="#81939B"/>
<path d="M15.1369 20.5786C14.9364 21.6833 14.0063 22.5189 12.887 22.5189C11.6215 22.5189 10.5962 21.4508 10.5962 20.1325C10.5962 19.2899 11.0165 18.5511 11.6487 18.1274C11.5343 18.1191 11.4199 18.1108 11.3032 18.1108C8.93312 18.1144 7.06042 20.0334 7.06495 22.4528C7.06948 24.8722 8.94105 26.777 11.3168 26.7782C13.7129 26.7794 15.5334 24.9029 15.5266 22.4386C15.5244 21.7635 15.3839 21.1369 15.1369 20.5786Z" fill="#C1222F"/>
<path d="M59.8319 21.641C59.5248 21.5619 59.3039 21.464 59.168 21.3448V18.3872C59.4104 18.5548 59.7095 18.6386 60.0652 18.6386C60.3224 18.6386 60.515 18.5595 60.6441 18.4025C60.7733 18.2444 60.8367 17.993 60.8367 17.6484V11.2021H63.5274V18.0485C63.5274 19.152 63.2872 20.0465 62.8069 20.7322C62.3265 21.4179 61.6241 21.7602 60.7008 21.7602C60.4278 21.7602 60.1389 21.7201 59.8319 21.6422V21.641Z" fill="black"/>
<path d="M65.8897 21.1241C65.3142 20.7004 64.8905 20.1233 64.6175 19.3939C64.3444 18.6645 64.2085 17.8266 64.2085 16.8801V11.2021H66.8992V16.7762C66.8992 17.3581 66.9898 17.7959 67.1722 18.0921C67.3535 18.3884 67.6412 18.5359 68.0355 18.5359C68.4297 18.5359 68.7152 18.3884 68.8931 18.0921C69.0709 17.7959 69.1604 17.3581 69.1604 16.7762V11.2021H71.8624V16.8801C71.8624 17.8266 71.7265 18.6645 71.4535 19.3939C71.1804 20.1233 70.7567 20.7004 70.1812 21.1241C69.6057 21.5478 68.8908 21.7602 68.0355 21.7602C67.1801 21.7602 66.4641 21.5478 65.8897 21.1241Z" fill="black"/>
<path d="M73.668 21.5525C73.1378 21.4144 72.7061 21.2267 72.373 20.9907V17.9446C72.7968 18.2597 73.2454 18.4969 73.7189 18.6539C74.1914 18.812 74.6287 18.8911 75.0309 18.8911C75.2586 18.8911 75.4206 18.8616 75.5191 18.8026C75.6177 18.7436 75.6664 18.6504 75.6664 18.5217C75.6664 18.3447 75.5905 18.1936 75.4387 18.0709C75.2869 17.9481 74.9651 17.7428 74.4735 17.4572C73.7473 17.0429 73.2193 16.5827 72.8897 16.0752C72.56 15.5677 72.3957 14.9493 72.3957 14.2199C72.3957 13.5897 72.5305 13.0291 72.799 12.5417C73.0675 12.0542 73.4459 11.6719 73.9342 11.3957C74.4225 11.1195 74.981 10.9814 75.6086 10.9814C76.123 10.9814 76.5807 11.0357 76.9829 11.1443C77.3839 11.2529 77.7668 11.4205 78.1294 11.6471V14.5893C77.4485 14.096 76.7744 13.8505 76.1082 13.8505C75.5701 13.8505 75.3016 14.0039 75.3016 14.3084C75.3016 14.4559 75.3639 14.5799 75.4885 14.6778C75.6132 14.777 75.8386 14.9091 76.1638 15.0767L76.5841 15.2986C77.1211 15.5948 77.5334 15.8875 77.8223 16.1778C78.1101 16.4682 78.314 16.7986 78.4352 17.168C78.5565 17.5374 78.6165 18.0036 78.6165 18.5654C78.6165 19.5615 78.3367 20.3428 77.7759 20.9093C77.2151 21.4757 76.3711 21.759 75.2438 21.759C74.7216 21.759 74.1948 21.6894 73.6657 21.5525H73.668Z" fill="black"/>
<path d="M80.5378 14.1444H78.5054V11.2021H85.262V14.1444H83.2296V21.5371H80.5389V14.1444H80.5378Z" fill="black"/>
<path d="M65.5225 28.8048C65.1067 28.5782 64.7839 28.2548 64.5539 27.8335C64.3239 27.4133 64.2095 26.9224 64.2095 26.3618C64.2095 25.8012 64.3239 25.3102 64.5539 24.8901C64.7839 24.4699 65.1067 24.1453 65.5225 23.9152C65.9383 23.6863 66.4152 23.5718 66.9534 23.5718C67.3204 23.5718 67.6479 23.6131 67.9367 23.6945C68.2256 23.7759 68.4873 23.9058 68.7218 24.084V25.0093C68.5066 24.8157 68.2596 24.6753 67.9809 24.5891C67.7022 24.503 67.3861 24.4593 67.0338 24.4593C66.6815 24.4593 66.362 24.5372 66.0765 24.693C65.7899 24.8487 65.5644 25.0706 65.3979 25.3574C65.2314 25.6454 65.1487 25.9806 65.1487 26.3629C65.1487 26.7453 65.2268 27.0876 65.3832 27.3755C65.5395 27.6635 65.757 27.8854 66.0357 28.04C66.3144 28.1958 66.6328 28.2737 66.9896 28.2737C67.3658 28.2737 67.6773 28.2076 67.922 28.0754V26.8751H67.0565V26.1033H68.8544V28.5959C68.399 28.9629 67.7657 29.1458 66.9534 29.1458C66.4152 29.1458 65.9383 29.0325 65.5225 28.8059V28.8048Z" fill="#C1222F"/>
<path d="M72.9633 23.6875H73.8662L75.9134 29.0314H74.9663L74.4961 27.8005H72.3243L71.8621 29.0314H70.9082L72.9633 23.6875ZM74.2401 26.998L73.4108 24.7273L72.5815 26.998H74.2401Z" fill="#C1222F"/>
<path d="M77.9312 23.6875H78.8409L80.5584 27.601L82.2759 23.6875H83.1856V29.0314H82.3053V25.5605L80.7793 29.0314H80.3386L78.8126 25.5605V29.0314H77.9323V23.6875H77.9312Z" fill="#C1222F"/>
<path d="M85.5342 23.6875H87.9699C88.4401 23.6875 88.8049 23.8102 89.0666 24.0545C89.3283 24.2988 89.4586 24.6564 89.4586 25.1249C89.4586 25.3751 89.4008 25.6006 89.2864 25.8012C89.1708 26.003 89.019 26.1564 88.8275 26.2638C89.3611 26.4468 89.6274 26.8575 89.6274 27.4948C89.6274 27.8111 89.5583 28.0849 89.4223 28.3162C89.2864 28.5475 89.1006 28.7245 88.8683 28.8473C88.6361 28.97 88.3778 29.0302 88.0946 29.0302H85.5342V23.6863V23.6875ZM87.8238 25.9121C88.0345 25.9121 88.2033 25.8519 88.3302 25.7327C88.4571 25.6135 88.5205 25.4306 88.5205 25.1863C88.5205 24.9066 88.4582 24.713 88.3336 24.6092C88.209 24.5053 88.0243 24.4522 87.7796 24.4522H86.4586V25.9121H87.8238ZM87.8827 28.2666C88.1421 28.2666 88.3415 28.2111 88.4809 28.099C88.6202 27.9869 88.6905 27.7886 88.6905 27.503C88.6905 27.2174 88.6168 27.0109 88.4707 26.8834C88.3234 26.756 88.1115 26.6922 87.8329 26.6922H86.4609V28.2666H87.885H87.8827Z" fill="#C1222F"/>
<path d="M91.8296 23.6875H92.762V28.2277H95.2272V29.0302H91.8296V23.6863V23.6875Z" fill="#C1222F"/>
<path d="M97.2827 23.6875H98.2151V29.0314H97.2827V23.6875Z" fill="#C1222F"/>
<path d="M100.562 23.6875H101.443L103.842 27.4098V23.6875H104.775V29.0314H103.894L101.495 25.3008V29.0314H100.562V23.6875Z" fill="#C1222F"/>
<path d="M108.289 28.8048C107.873 28.5782 107.55 28.2548 107.32 27.8335C107.09 27.4133 106.976 26.9224 106.976 26.3618C106.976 25.8012 107.09 25.3102 107.32 24.8901C107.55 24.4699 107.873 24.1453 108.289 23.9152C108.704 23.6863 109.181 23.5718 109.719 23.5718C110.087 23.5718 110.414 23.6131 110.703 23.6945C110.992 23.7759 111.253 23.9058 111.488 24.084V25.0093C111.273 24.8157 111.026 24.6753 110.747 24.5891C110.468 24.503 110.152 24.4593 109.8 24.4593C109.448 24.4593 109.128 24.5372 108.843 24.693C108.557 24.8487 108.331 25.0706 108.164 25.3574C107.997 25.6454 107.915 25.9806 107.915 26.3629C107.915 26.7453 107.993 27.0876 108.149 27.3755C108.306 27.6635 108.523 27.8854 108.802 28.04C109.081 28.1958 109.399 28.2737 109.756 28.2737C110.132 28.2737 110.443 28.2076 110.688 28.0754V26.8751H109.823V26.1033H111.621V28.5959C111.165 28.9629 110.532 29.1458 109.719 29.1458C109.181 29.1458 108.704 29.0325 108.289 28.8059V28.8048Z" fill="#C1222F"/>
<path d="M93.1506 16.1778C92.8629 15.8875 92.4505 15.5937 91.9124 15.2986L91.492 15.0767C91.1669 14.9091 90.9414 14.7758 90.8168 14.6778C90.6922 14.5799 90.6299 14.4559 90.6299 14.3084C90.6299 14.0027 90.8984 13.8505 91.4365 13.8505C92.1027 13.8505 92.7768 14.0972 93.4576 14.5893V11.6471C93.094 11.4205 92.7122 11.2529 92.3111 11.1443C91.9101 11.0357 91.4524 10.9814 90.9369 10.9814C90.3082 10.9814 89.7508 11.1195 89.2625 11.3957C88.7742 11.6719 88.3958 12.0531 88.1273 12.5417C87.8588 13.0291 87.724 13.5897 87.724 14.2199C87.724 14.9493 87.8883 15.5677 88.2179 16.0752C88.5476 16.5827 89.0755 17.0441 89.8017 17.4572C90.2934 17.7428 90.6152 17.9481 90.767 18.0709C90.9188 18.1948 90.9936 18.3447 90.9936 18.5217C90.9936 18.6504 90.9448 18.7436 90.8463 18.8026C90.7477 18.8616 90.5846 18.8911 90.358 18.8911C89.9569 18.8911 89.5196 18.812 89.0461 18.6539C88.5725 18.4969 88.1239 18.2597 87.7002 17.9446V20.9907C88.0333 21.2279 88.4649 21.4144 88.9951 21.5525C89.5253 21.6905 90.051 21.759 90.5733 21.759C91.7005 21.759 92.5445 21.4757 93.1053 20.9093C93.665 20.3428 93.9459 19.5615 93.9459 18.5654C93.9459 18.0036 93.8847 17.5374 93.7647 17.168C93.6434 16.7986 93.4395 16.4682 93.1518 16.1778H93.1506Z" fill="black"/>
<path d="M93.8315 14.1444H95.864V21.5383H98.5558V14.1444H100.588V11.2021H93.8315V14.1444Z" fill="black"/>
<path d="M109.01 11.5397C108.205 11.083 107.301 10.854 106.3 10.854C105.3 10.854 104.391 11.083 103.576 11.5397C102.76 11.9964 102.119 12.6373 101.652 13.4611C101.184 14.286 100.951 15.229 100.951 16.2923C100.951 17.3557 101.184 18.2963 101.652 19.1154C102.119 19.9344 102.76 20.5729 103.576 21.0297C104.391 21.4864 105.299 21.7153 106.3 21.7153C107.302 21.7153 108.205 21.4864 109.01 21.0297C109.816 20.5729 110.452 19.9344 110.919 19.1154C111.386 18.2963 111.62 17.3545 111.62 16.2923C111.62 15.2302 111.387 14.286 110.919 13.4611C110.451 12.6373 109.816 11.9964 109.01 11.5397ZM103.582 14.5421C103.859 14.0405 104.233 13.6534 104.705 13.3796C105.176 13.107 105.709 12.9701 106.3 12.9701C106.834 12.9701 107.321 13.0869 107.762 13.3159L103.459 17.8018C103.266 17.3592 103.168 16.8565 103.168 16.2923C103.168 15.6267 103.306 15.0437 103.582 14.5421ZM108.989 18.0579C108.712 18.5595 108.338 18.9466 107.866 19.2204C107.394 19.493 106.872 19.6299 106.3 19.6299C105.862 19.6299 105.453 19.5521 105.074 19.3963L109.222 15.0708C109.343 15.4414 109.404 15.8486 109.404 16.2923C109.404 16.9674 109.266 17.5563 108.99 18.0579H108.989Z" fill="black"/>
<path d="M118.305 12.1641C117.729 11.5232 116.95 11.2034 115.965 11.2034H112.149V21.5383H114.84V18.7141H115.964C116.948 18.7141 117.728 18.3943 118.303 17.7535C118.879 17.1126 119.167 16.1814 119.167 14.9588C119.167 13.7361 118.879 12.8049 118.303 12.1641H118.305ZM115.42 16.0976H114.841V13.821H115.42C116.109 13.821 116.453 14.2011 116.453 14.9599C116.453 15.7188 116.109 16.0988 115.42 16.0988V16.0976Z" fill="black"/>
</svg>
