<svg width="201" height="200" viewBox="0 0 201 200" fill="none" xmlns="http://www.w3.org/2000/svg">
<g clip-path="url(#clip0_1_1596)">
<path d="M132.612 -0.00129917C137.944 -0.048507 143.284 0.490449 148.514 1.6195C158.843 3.85007 168.68 8.3899 177.181 14.8967C179.073 16.3444 180.904 17.8865 182.668 19.5034C185.145 21.7733 186.633 24.4288 185.251 27.8041C184.088 30.6484 181.69 31.5729 178.767 31.1401C177.151 30.9002 176.101 29.7987 174.972 28.7601C150.433 6.08458 115.588 6.39143 91.091 29.4879C87.8471 32.5485 84.5315 32.6587 82.0579 29.7908C79.6902 27.0449 79.8865 23.6223 82.9341 20.6993C91.0683 12.9061 100.657 6.81237 111.249 3.42127C118.171 1.21037 125.388 0.0655786 132.612 -0.00129917Z" fill="#C1222F"/>
<path d="M129.603 21.2671C140.614 20.8737 151.94 23.8518 161.222 30.0557C164.02 31.9282 166.645 34.0723 169.092 36.4169C171.407 38.6317 171.871 41.177 169.583 43.7538C169.254 44.1236 168.896 44.517 168.529 44.9143C166.509 47.0898 163.205 47.2393 161.022 45.2408C160.886 45.1189 160.761 45.0048 160.652 44.9025C143.764 29.3475 121.287 29.3475 104.184 44.8868C101.148 47.6484 97.6583 47.8491 95.3698 45.3982C92.8283 42.6719 92.9832 39.033 96.2271 35.9802C105.06 27.6795 115.996 22.1523 127.941 21.3537C128.496 21.3183 129.051 21.2868 129.606 21.2671H129.603Z" fill="#C1222F"/>
<path d="M175.516 43.7539C187.562 62.3223 187.883 86.3669 176.252 105.309C166.003 121.997 148.617 131.12 130.875 131.12C120.962 131.12 110.94 128.272 101.99 122.308C95.3397 117.874 89.8073 112.103 85.6533 105.317C85.6533 105.317 92.0845 97.7636 93.0248 92.3701C96.2989 100.222 101.676 106.792 108.659 111.446C127.881 124.255 153.526 118.39 165.826 98.3616C174.674 83.9514 174.538 65.7016 165.584 51.4803C165.584 51.4803 173.643 51.7006 175.519 43.7578L175.516 43.7539Z" fill="#81939B"/>
<path d="M97.6998 51.5551C90.6493 50.9374 87.817 43.6871 87.817 43.6871C76.7712 53.2742 77.0053 65.505 77.1904 68.0818C77.2206 69.4468 77.3641 70.6349 77.4811 71.6027C77.5718 72.3619 77.6511 73.015 77.6511 73.5303C77.6511 87.9051 66.4239 99.6009 52.6251 99.6009C38.8263 99.6009 27.5991 87.9051 27.5991 73.5303C27.5991 59.1555 38.8263 47.4598 52.6251 47.4598C59.0449 47.4598 65.1475 49.9893 69.8113 54.5803L69.8453 54.541C72.096 56.7794 73.9389 59.6827 73.9389 59.6827C74.2221 51.9878 79.4297 46.2285 79.4297 46.2285L77.636 44.5722C77.3678 44.3205 77.0997 44.0687 76.824 43.8248L76.6994 43.7107H76.6956C69.9586 37.8058 61.4958 34.5681 52.6251 34.5681C32.0024 34.5681 15.2202 52.0468 15.2202 73.5343C15.2202 95.0217 31.9986 112.5 52.6251 112.5C73.2516 112.5 90.03 95.0217 90.03 73.5343C90.03 72.2203 89.8903 71.048 89.7656 70.0133C89.6637 69.1597 89.5768 68.424 89.5655 67.6726L89.5202 66.9606C89.5126 66.8937 88.6365 57.7983 97.7036 51.559L97.6998 51.5551Z" fill="#81939B"/>
<path d="M151.135 66.5515L123.644 95.1909C126.268 94.7739 128.791 93.7275 131.091 92.3624C129.803 96.7803 128.602 101.375 125.94 105.156C125.532 105.805 125.022 106.387 124.69 107.091C130.456 107.068 136.219 107.064 141.985 107.091C141.366 106.198 140.622 105.415 139.946 104.581C137.159 101.147 136.109 96.6544 135.15 92.3742C139.534 94.9864 145.022 96.0131 149.84 94.1091C153.469 92.7322 156.468 89.5378 157.468 85.6274C158.36 82.3701 157.929 78.8531 156.785 75.7216C155.516 72.303 153.492 69.2542 151.132 66.5515H151.135Z" fill="#C1222F"/>
<path d="M139.357 53.5496C136.997 50.4653 135.033 47.086 133.028 43.75C130.535 47.6368 128.009 51.5078 125.158 55.1271C122.359 58.6992 119.35 62.0942 116.113 65.2492C114.104 67.35 112.246 69.6238 110.724 72.1376C108.67 75.4973 107.141 79.4077 107.333 83.4518C107.394 85.1631 107.836 86.8508 108.579 88.3732L140.546 55.072C140.15 54.5645 139.738 54.0688 139.353 53.5496H139.357Z" fill="#C1222F"/>
<path d="M160.844 52.9437L104.267 111.93C101.37 109.743 98.7986 107.182 96.6045 104.302L152.88 45.6541C152.88 45.6541 156.887 48.4039 160.84 52.9437H160.844Z" fill="#81939B"/>
<path d="M65.6761 67.4877C65.0077 71.1699 61.9073 73.9552 58.1763 73.9552C53.9581 73.9552 50.5405 70.3949 50.5405 66.0006C50.5405 63.1918 51.9415 60.7291 54.0487 59.3168C53.6673 59.2893 53.2859 59.2617 52.8969 59.2617C44.9968 59.2735 38.7545 65.6702 38.7696 73.7349C38.7847 81.7995 45.0232 88.149 52.9423 88.1529C60.9293 88.1569 66.9979 81.9018 66.9752 73.6877C66.9677 71.4374 66.4994 69.3485 65.6761 67.4877Z" fill="#C1222F"/>
<path d="M2.71295 174.988C1.68955 174.724 0.953164 174.397 0.5 174V164.142C1.30814 164.7 2.3051 164.979 3.49088 164.979C4.34811 164.979 4.9901 164.716 5.4206 164.193C5.85111 163.666 6.06258 162.828 6.06258 161.679V140.191H15.0314V163.012C15.0314 166.691 14.2309 169.673 12.6297 171.958C11.0285 174.244 8.68716 175.385 5.60942 175.385C4.69932 175.385 3.73634 175.251 2.71295 174.991V174.988Z" fill="black"/>
<path d="M22.9054 173.264C20.987 171.852 19.5746 169.928 18.6645 167.497C17.7544 165.066 17.3013 162.273 17.3013 159.118V140.191H26.2701V158.772C26.2701 160.711 26.5722 162.171 27.1802 163.158C27.7845 164.145 28.7436 164.637 30.0578 164.637C31.372 164.637 32.3236 164.145 32.9165 163.158C33.5094 162.171 33.8078 160.711 33.8078 158.772V140.191H42.8144V159.118C42.8144 162.273 42.3612 165.066 41.4511 167.497C40.541 169.928 39.1287 171.852 37.2103 173.264C35.2919 174.677 32.909 175.385 30.0578 175.385C27.2067 175.385 24.82 174.677 22.9054 173.264Z" fill="black"/>
<path d="M48.8335 174.693C47.0661 174.232 45.6273 173.607 44.5171 172.82V162.666C45.9294 163.717 47.4249 164.507 49.0034 165.031C50.5782 165.558 52.0358 165.821 53.3764 165.821C54.1355 165.821 54.6755 165.723 55.0041 165.526C55.3326 165.33 55.495 165.019 55.495 164.59C55.495 164 55.242 163.496 54.7359 163.087C54.2299 162.678 53.1574 161.994 51.5185 161.042C49.0978 159.661 47.338 158.127 46.2391 156.435C45.1402 154.743 44.5926 152.682 44.5926 150.251C44.5926 148.15 45.042 146.281 45.937 144.657C46.832 143.032 48.0933 141.757 49.7209 140.837C51.3485 139.916 53.2103 139.456 55.3024 139.456C57.0169 139.456 58.5425 139.637 59.8831 139.999C61.2199 140.361 62.4964 140.919 63.7048 141.675V151.482C61.4352 149.838 59.1883 149.019 56.9678 149.019C55.174 149.019 54.279 149.531 54.279 150.546C54.279 151.037 54.4867 151.451 54.9021 151.777C55.3175 152.108 56.069 152.548 57.1528 153.107L58.5538 153.846C60.3438 154.834 61.7184 155.809 62.6814 156.777C63.6406 157.745 64.3203 158.846 64.7244 160.078C65.1285 161.309 65.3286 162.863 65.3286 164.736C65.3286 168.056 64.3959 170.66 62.5266 172.549C60.6573 174.437 57.8439 175.381 54.0864 175.381C52.3455 175.381 50.5895 175.149 48.8259 174.693H48.8335Z" fill="black"/>
<path d="M71.7338 149.999H64.959V140.191H87.4812V149.999H80.7064V174.641H71.7376V149.999H71.7338Z" fill="black"/>
<path d="M21.6815 198.867C20.2956 198.112 19.2193 197.034 18.4527 195.629C17.6861 194.229 17.3047 192.592 17.3047 190.724C17.3047 188.855 17.6861 187.218 18.4527 185.818C19.2193 184.417 20.2956 183.335 21.6815 182.568C23.0674 181.805 24.6573 181.424 26.451 181.424C27.6746 181.424 28.766 181.561 29.7289 181.833C30.6919 182.104 31.5642 182.537 32.3459 183.131V186.215C31.6284 185.57 30.8052 185.102 29.8762 184.815C28.9472 184.527 27.8936 184.382 26.7192 184.382C25.5447 184.382 24.4798 184.642 23.5281 185.161C22.5727 185.68 21.8212 186.42 21.2661 187.376C20.711 188.336 20.4353 189.453 20.4353 190.727C20.4353 192.002 20.6959 193.143 21.217 194.103C21.7381 195.063 22.4632 195.802 23.3922 196.318C24.3212 196.837 25.3823 197.097 26.5719 197.097C27.8256 197.097 28.8641 196.876 29.6798 196.436V192.435H26.7947V189.862H32.7878V198.171C31.2697 199.394 29.1587 200.004 26.451 200.004C24.6573 200.004 23.0674 199.626 21.6815 198.871V198.867Z" fill="#C1222F"/>
<path d="M46.4846 181.809H49.4944L56.3183 199.622H53.1612L51.594 195.519H44.3547L42.814 199.622H39.6343L46.4846 181.809ZM50.7406 192.844L47.9763 185.275L45.212 192.844H50.7406Z" fill="#C1222F"/>
<path d="M63.0439 181.809H66.0764L71.8013 194.854L77.5263 181.809H80.5587V199.622H77.6245V188.052L72.5377 199.622H71.0687L65.982 188.052V199.622H63.0477V181.809H63.0439Z" fill="#C1222F"/>
<path d="M88.3872 181.809H96.5064C98.0736 181.809 99.2896 182.218 100.162 183.033C101.034 183.847 101.469 185.039 101.469 186.601C101.469 187.435 101.276 188.186 100.895 188.855C100.509 189.528 100.003 190.039 99.3651 190.397C101.144 191.007 102.031 192.376 102.031 194.5C102.031 195.554 101.801 196.467 101.348 197.238C100.895 198.009 100.275 198.599 99.501 199.008C98.7269 199.418 97.8659 199.618 96.9218 199.618H88.3872V181.805V181.809ZM96.0192 189.225C96.7216 189.225 97.2843 189.024 97.7073 188.627C98.1302 188.229 98.3417 187.62 98.3417 186.805C98.3417 185.873 98.134 185.228 97.7186 184.882C97.3032 184.535 96.6877 184.358 95.872 184.358H91.4687V189.225H96.0192ZM96.2156 197.073C97.0804 197.073 97.745 196.888 98.2095 196.514C98.674 196.141 98.9082 195.48 98.9082 194.528C98.9082 193.576 98.6627 192.887 98.1755 192.462C97.6846 192.037 96.9784 191.825 96.0495 191.825H91.4763V197.073H96.2232H96.2156Z" fill="#C1222F"/>
<path d="M109.373 181.809H112.481V196.943H120.698V199.618H109.373V181.805V181.809Z" fill="#C1222F"/>
<path d="M127.548 181.809H130.656V199.622H127.548V181.809Z" fill="#C1222F"/>
<path d="M138.48 181.809H141.415L149.413 194.217V181.809H152.521V199.622H149.587L141.588 187.187V199.622H138.48V181.809Z" fill="#C1222F"/>
<path d="M164.235 198.867C162.849 198.112 161.773 197.034 161.006 195.629C160.24 194.229 159.858 192.592 159.858 190.724C159.858 188.855 160.24 187.218 161.006 185.818C161.773 184.417 162.849 183.335 164.235 182.568C165.621 181.805 167.211 181.424 169.005 181.424C170.228 181.424 171.32 181.561 172.283 181.833C173.246 182.104 174.118 182.537 174.9 183.131V186.215C174.182 185.57 173.359 185.102 172.43 184.815C171.501 184.527 170.447 184.382 169.273 184.382C168.098 184.382 167.033 184.642 166.082 185.161C165.13 185.68 164.375 186.42 163.82 187.376C163.265 188.336 162.989 189.453 162.989 190.727C162.989 192.002 163.25 193.143 163.771 194.103C164.292 195.063 165.017 195.802 165.946 196.318C166.875 196.837 167.936 197.097 169.126 197.097C170.379 197.097 171.418 196.876 172.234 196.436V192.435H169.348V189.862H175.341V198.171C173.823 199.394 171.712 200.004 169.005 200.004C167.211 200.004 165.621 199.626 164.235 198.871V198.867Z" fill="#C1222F"/>
<path d="M113.776 156.777C112.817 155.809 111.442 154.83 109.648 153.846L108.247 153.107C107.164 152.548 106.412 152.104 105.997 151.777C105.581 151.451 105.374 151.037 105.374 150.546C105.374 149.527 106.269 149.019 108.062 149.019C110.283 149.019 112.53 149.842 114.799 151.482V141.675C113.587 140.919 112.315 140.361 110.978 139.999C109.641 139.637 108.115 139.456 106.397 139.456C104.301 139.456 102.443 139.916 100.816 140.837C99.1879 141.757 97.9266 143.028 97.0316 144.657C96.1366 146.281 95.6872 148.15 95.6872 150.251C95.6872 152.682 96.2348 154.743 97.3337 156.435C98.4326 158.127 100.192 159.665 102.613 161.042C104.252 161.994 105.324 162.678 105.831 163.087C106.337 163.5 106.586 164 106.586 164.59C106.586 165.019 106.423 165.33 106.095 165.526C105.766 165.723 105.223 165.821 104.467 165.821C103.13 165.821 101.673 165.558 100.094 165.031C98.5157 164.507 97.0203 163.717 95.6079 162.666V172.82C96.7182 173.611 98.157 174.232 99.9243 174.693C101.692 175.153 103.444 175.381 105.185 175.381C108.942 175.381 111.756 174.437 113.625 172.549C115.49 170.66 116.427 168.056 116.427 164.736C116.427 162.863 116.223 161.309 115.823 160.078C115.419 158.846 114.739 157.745 113.78 156.777H113.776Z" fill="black"/>
<path d="M116.045 149.999H122.82V174.646H131.793V149.999H138.568V140.192H116.045V149.999Z" fill="black"/>
<path d="M166.641 141.317C163.956 139.794 160.943 139.031 157.608 139.031C154.274 139.031 151.245 139.794 148.526 141.317C145.807 142.839 143.67 144.975 142.114 147.721C140.554 150.471 139.776 153.614 139.776 157.159C139.776 160.703 140.554 163.839 142.114 166.569C143.67 169.299 145.807 171.427 148.526 172.95C151.245 174.472 154.27 175.235 157.608 175.235C160.947 175.235 163.956 174.472 166.641 172.95C169.326 171.427 171.449 169.299 173.005 166.569C174.56 163.839 175.342 160.699 175.342 157.159C175.342 153.618 174.564 150.471 173.005 147.721C171.445 144.975 169.326 142.839 166.641 141.317ZM148.549 151.325C149.47 149.653 150.716 148.362 152.291 147.45C153.862 146.541 155.637 146.085 157.608 146.085C159.387 146.085 161.011 146.474 162.48 147.237L148.137 162.19C147.495 160.715 147.167 159.039 147.167 157.159C147.167 154.94 147.627 152.997 148.549 151.325ZM166.57 163.044C165.648 164.716 164.402 166.006 162.827 166.919C161.253 167.828 159.515 168.284 157.608 168.284C156.147 168.284 154.784 168.024 153.522 167.505L167.348 153.087C167.752 154.322 167.956 155.68 167.956 157.159C167.956 159.409 167.495 161.372 166.573 163.044H166.57Z" fill="black"/>
<path d="M197.622 143.398C195.704 141.262 193.106 140.196 189.824 140.196H177.105V174.645H186.074V165.231H189.82C193.102 165.231 195.7 164.165 197.619 162.029C199.537 159.893 200.496 156.789 200.496 152.714C200.496 148.638 199.537 145.534 197.619 143.398H197.622ZM188.008 156.51H186.078V148.921H188.008C190.304 148.921 191.452 150.188 191.452 152.717C191.452 155.247 190.304 156.514 188.008 156.514V156.51Z" fill="black"/>
</g>
<defs>
<clipPath id="clip0_1_1596">
<rect width="200" height="200" fill="white" transform="translate(0.5)"/>
</clipPath>
</defs>
</svg>
